<?xml version="1.0" encoding="utf-8"?>
<!-- Generator: Adobe Illustrator 24.0.0, SVG Export Plug-In . SVG Version: 6.00 Build 0)  -->
<svg version="1.1" id="Layer_1" xmlns="http://www.w3.org/2000/svg" xmlns:xlink="http://www.w3.org/1999/xlink" x="0px" y="0px"
	 viewBox="0 0 16 12" style="enable-background:new 0 0 16 12;" xml:space="preserve">
<style type="text/css">
	.st0{fill:#AC2226;}
</style>
<g>
	<g>
		<path class="st0" d="M0.5,0.5v11h15v-11H0.5z M8.6,6H8V1h6.5L8.6,6z M15,11H1V1.8L7,7h2l6-5.1V11z"/>
		<path class="st0" d="M0,0v12h16V0H0z M15,11H1V1h14V11z"/>
	</g>
	<g>
		<path class="st0" d="M0.5,0.5v0.3L1,1.2l6.2,5.3h1.6L15,1.2l0.5-0.4V0.5H0.5z M8.6,6H8V1h6.5L8.6,6z"/>
		<path class="st0" d="M0,0v1l1,0.9L7,7h2l6-5.1L16,1V0H0z M7.4,6L1.6,1h12.9L8.6,6H7.4z"/>
	</g>
	<polygon class="st0" points="8,1 8,6 7.4,6 7,6 1,1 1,1 	"/>
</g>
</svg>
