<svg version="1.1" id="Layer_1" xmlns="http://www.w3.org/2000/svg" xmlns:xlink="http://www.w3.org/1999/xlink" x="0px" y="0px" viewBox="0 0 24 24" style="enable-background:new 0 0 24 24;" xml:space="preserve">
												<path class="st0" d="M21.9,0H2.1L0,2.1v19.8L2.1,24h19.8l2.1-2.1V2.1L21.9,0z M22.5,21.4l-1.1,1.1h-5.4v-7.8h2.6l0.5-3.2h-3.1V9.3
												c0-0.9,0.4-1.8,1.8-1.8h1.4V4.8c0,0-1.3-0.2-2.5-0.2c-2.6,0-4.2,1.6-4.2,4.4v2.5H9.7v3.2h2.8v7.8H6.8L1.5,12V2.6l1.1-1.1h18.9
												l1.1,1.1V21.4z"></path>
											</svg>