<svg version="1.1" id="Layer_1" xmlns="http://www.w3.org/2000/svg" xmlns:xlink="http://www.w3.org/1999/xlink" x="0px" y="0px" viewBox="0 0 24 24" style="enable-background:new 0 0 24 24;" xml:space="preserve">
	<g>
		<path class="st0" d="M21.9,0H2.1L0,2.1v19.8L2.1,24h19.8l2.1-2.1V2.1L21.9,0z M22.5,21.4l-1.1,1.1H6.8L1.5,12V2.6l1.1-1.1h18.9 l1.1,1.1V21.4z">
		</path>
		<path class="st0" d="M18.4,4.3c-0.8,0-1.4,0.6-1.4,1.4s0.6,1.4,1.4,1.4c0.8,0,1.4-0.6,1.4-1.4C19.8,4.9,19.1,4.3,18.4,4.3z">
		</path>
		<path class="st0" d="M12.1,6.4C9,6.4,6.5,8.9,6.5,12s2.5,5.6,5.6,5.6s5.6-2.5,5.6-5.6S15.2,6.4,12.1,6.4z M12.1,16.1C9.8,16.1,8,14.3,8,12s1.8-4.1,4.1-4.1s4.1,1.8,4.1,4.1S14.4,16.1,12.1,16.1z">
		</path>
	</g>
</svg>
