<?xml version="1.0" encoding="utf-8"?>
<!-- Generator: Adobe Illustrator 24.0.0, SVG Export Plug-In . SVG Version: 6.00 Build 0)  -->
<svg version="1.1" id="Layer_1" xmlns="http://www.w3.org/2000/svg" xmlns:xlink="http://www.w3.org/1999/xlink" x="0px" y="0px"
	 viewBox="0 0 16 16" style="enable-background:new 0 0 16 16;" xml:space="preserve">
<style type="text/css">
	.st0{fill:#AC2226;}
</style>
<g>
	<polygon class="st0" points="1,8 1,15 4.5,15 	"/>
	<g>
		<path class="st0" d="M14.6,0H1.4L0,1.4v13.2L1.4,16h13.2l1.4-1.4V1.4L14.6,0z M15,14.3L14.3,15H1.7L1,14.3V1.7L1.7,1h12.6L15,1.7
			V14.3z"/>
	</g>
	<path class="st0" d="M12.2,2.9c-0.5,0-0.9,0.4-0.9,0.9s0.4,0.9,0.9,0.9s0.9-0.4,0.9-0.9C13.2,3.3,12.8,2.9,12.2,2.9z"/>
	<path class="st0" d="M8.1,5.2c1.5,0,2.8,1.2,2.8,2.8s-1.2,2.8-2.8,2.8S5.3,9.5,5.3,8S6.5,5.2,8.1,5.2 M8.1,4.2C6,4.2,4.3,5.9,4.3,8
		s1.7,3.8,3.8,3.8s3.8-1.7,3.8-3.8S10.1,4.2,8.1,4.2L8.1,4.2z"/>
</g>
</svg>
