<svg id="Group_29" data-name="Group 29" xmlns="http://www.w3.org/2000/svg" width="92.804" height="60" viewBox="0 0 92.804 60">
  <path id="Path_63" data-name="Path 63" d="M1084.835,518.413l0,3.855v25.64c0,11.565-2.511,16.308-4.381,19.755l.584.467c8.12-5.14,12.676-11.871,12.676-17.01V522.268l4.031-3.563v-.292Z" transform="translate(-1004.943 -508.131)" fill="#f8c883"/>
  <path id="Path_64" data-name="Path 64" d="M973.505,527.483v-9.07H937.59v9.07l.465,0c1.4-2.481,2.6-4.491,4.94-5.659,2.4-1.2,8.091-.991,8.091-.991l-.03,36.25h8.923l.031-36.219s4.744-.187,7.04.6c2.952,1.006,4.459,2.87,5.961,6Z" transform="translate(-896.604 -508.131)" fill="#f8c883"/>
  <path id="Path_65" data-name="Path 65" d="M802.693,543.612l-22.561-25.2H768v.32s1.559,1.612,3.425,3.6V557.08h10.258l0-.277c-8.041-3.348-6.859-30.95-6.859-30.95l27.438,31.227H806V518.413h-3.3Z" transform="translate(-768.002 -508.131)" fill="#f8c883"/>
  <path id="Path_66" data-name="Path 66" d="M1094.155,479.518l.774,4.389h9.152l.775-4.389a1.021,1.021,0,0,0,.386-.794,1.062,1.062,0,0,0-2.124,0,1.021,1.021,0,0,0,.348.763c-.232.656-.681,1.482-1.475,1.482-1.1,0-1.537-1.992-1.682-2.918a1.218,1.218,0,0,0,.462-.948,1.265,1.265,0,0,0-2.529,0,1.219,1.219,0,0,0,.461.948c-.145.926-.585,2.918-1.682,2.918-.794,0-1.243-.826-1.475-1.482a1.023,1.023,0,0,0,.347-.763,1.062,1.062,0,0,0-2.124,0A1.023,1.023,0,0,0,1094.155,479.518Z" transform="translate(-1015.037 -475.868)" fill="#f8c883"/>
</svg>
