<svg xmlns="http://www.w3.org/2000/svg" width="274.282" height="46" viewBox="0 0 274.282 46">
  <g id="Group_8" data-name="Group 8" transform="translate(0 0)">
    <path id="Path_67" data-name="Path 67" d="M574.414,615.237,558.56,597.529h-8.524v.225s1.1,1.133,2.407,2.526l.037,24.421h7.171v-.195c-5.651-2.352-4.819-21.749-4.819-21.749L574.114,624.7h2.622V603.5a10.371,10.371,0,0,1,1.736-5.743v-.226h-4.058Z" transform="translate(-550.036 -586.997)" fill="#a2041b"/>
    <path id="Path_68" data-name="Path 68" d="M871.918,621.7l-.767-3.729-.38.068c-.69,1.142-3.389,4.986-7.542,4.914-5.671-.1-8.691-4.969-8.691-12.631,0-6.555,3.007-11.463,7.9-11.463,4.788,0,6.846,5.4,7.2,6.492l.241.086,1.287-5.843a17.991,17.991,0,0,0-7.779-2.67c-9.691-.439-15.651,6.186-15.651,14.094,0,8.727,6.883,13.89,15.405,13.89C867.568,624.906,870.528,622.549,871.918,621.7Z" transform="translate(-748.151 -586.58)" fill="#a2041b"/>
    <path id="Path_69" data-name="Path 69" d="M1019.663,603.884l.348.019v-6.374H994.772V603.9l.328,0c.98-1.744,1.83-3.156,3.471-3.976,1.687-.843,5.686-.7,5.686-.7l-.021,25.474h6.27l.021-25.452a18.778,18.778,0,0,1,4.947.419C1017.548,600.375,1018.607,601.685,1019.663,603.884Z" transform="translate(-845.999 -586.997)" fill="#a2041b"/>
    <path id="Path_70" data-name="Path 70" d="M1107.65,610.142h-11.828l.013-12.613h-6.227V624.7h6.227V612.126s11.828-.284,11.828,3.358V624.7h6.2V597.529h-6.2Z" transform="translate(-909.11 -586.997)" fill="#a2041b"/>
    <path id="Path_71" data-name="Path 71" d="M1300.9,597.529l-8.1,16.8-8.263-16.8h-7.867v.2c.123.246,1.041,1.547,1.728,2.535l.15,24.433h6.371l0-.212c-5.185-5.193-4.187-21.586-4.187-21.586l9.688,19.823h.615l8.877-17.618V624.7h6.309V603.456a10.721,10.721,0,0,1,1.654-5.722v-.2Z" transform="translate(-1033.596 -586.997)" fill="#a2041b"/>
    <path id="Path_72" data-name="Path 72" d="M668.809,610.675l-.012.294c1.291.12,3.4,1.44,3.271,6.328v.253a5.16,5.16,0,0,1-4.975,5.186h-.048c-5.7.049-9.043-5.188-9.043-12.6,0-7.006,4.19-11.555,8.163-11.449,5.3.142,7.559,4.751,7.938,5.56l.249.1,1.309-4.592c-.611-.269-4.839-2.848-8.727-3.013-10.37-.439-15.692,6.432-15.692,14.176,0,8.195,6.6,13.807,15.282,13.807,5.053,0,6.351-4.418,9.858,0h.426V613.3l-.009-2.614Z" transform="translate(-617.386 -586.456)" fill="#a2041b"/>
    <path id="Path_73" data-name="Path 73" d="M760.3,596.877c-7.516,0-14.3,5.271-14.3,14.051,0,8.741,6.659,13.969,14.3,13.969,7.231,0,14.3-5.228,14.3-13.969C774.6,602.148,768.145,596.877,760.3,596.877Zm.02,26.066c-3.718,0-7.577-4.947-7.577-12.015,0-7.231,3.839-12.1,7.558-12.1,3.595,0,7.6,4.865,7.6,12.1C767.9,618,763.9,622.943,760.323,622.943Z" transform="translate(-680.451 -586.563)" fill="#a2041b"/>
    <path id="Path_74" data-name="Path 74" d="M1192.269,597.529h-1.952l0,.226.934,2.349-9.741,24.6h6.45v-.212c-3.8-.134.64-11.064.64-11.064s8.238.459,8.828,1.688,3.935,7.685,1.921,9.377v.221l8.893-.009-11.626-27.172Zm-3.046,13.939,3.181-8.511,3.486,8.511Z" transform="translate(-970.268 -586.997)" fill="#a2041b"/>
    <path id="Path_75" data-name="Path 75" d="M1236.649,568.41c0,1.728-1.469,1.73-1.518,3.43s1.984,1.879,1.984,1.879l-.04-.706a1.484,1.484,0,0,1-.489-1.173c.034-1.067,2.239-2,2.239-3.613s-1.48-2.182-3.72-2.182l.054,1.4S1236.649,567.311,1236.649,568.41Z" transform="translate(-1005.935 -566.045)" fill="#a2041b"/>
    <path id="Path_76" data-name="Path 76" d="M1207.712,581.169a5.148,5.148,0,0,1,3.177,1.173h1.76l-3.918-4.221h-1.858l-4.1,4.221h1.76A5.483,5.483,0,0,1,1207.712,581.169Z" transform="translate(-984.42 -574.081)" fill="#a2041b"/>
    <path id="Path_77" data-name="Path 77" d="M776.453,692.206l4.082,2.284,4.18-2.279-4.18-2.279Z" transform="translate(-700.712 -648.489)" fill="#a2041b"/>
    <path id="Path_78" data-name="Path 78" d="M943.36,620.891H942.7c-.876,3.118-3.975,4.594-8.2,5.625v.705c4.226,1.031,7.326,2.506,8.2,5.624h.656c.875-3.118,3.975-4.594,8.2-5.624v-.705C947.335,625.485,944.235,624.009,943.36,620.891Zm-7.176,6.236h6.572v4.259C941.555,628.742,939.14,627.944,936.184,627.127Zm7.123-.518v-4.259c1.2,2.643,3.616,3.441,6.572,4.259Z" transform="translate(-805.89 -602.544)" fill="#a2041b"/>
  </g>
</svg>
