<?xml version="1.0" encoding="utf-8"?>
<!-- Generator: Adobe Illustrator 24.0.0, SVG Export Plug-In . SVG Version: 6.00 Build 0)  -->
<svg version="1.1" id="Layer_1" xmlns="http://www.w3.org/2000/svg" xmlns:xlink="http://www.w3.org/1999/xlink" x="0px" y="0px"
	 viewBox="0 0 16 16" style="enable-background:new 0 0 16 16;" xml:space="preserve">
<style type="text/css">
	.st0{fill:#AC2226;}
</style>
<g>
	<path class="st0" d="M13,11l-3,1L7,9L4,6l1-3L2,0L0,4v1l3,7l1,1l7,3h1l4-2L13,11z M1,4.8V4.2l1.3-2.5L2.8,9L2.4,8L1,4.8z"/>
	<path class="st0" d="M8,4c2.2,0,4,1.8,4,4h1c0-2.8-2.2-5-5-5V4z"/>
	<g>
		<path class="st0" d="M8,1c3.9,0,7,3.1,7,7h1c0-4.4-3.6-8-8-8V1z"/>
	</g>
</g>
</svg>
