<svg  version="1.1" id="Layer_1" xmlns="http://www.w3.org/2000/svg" xmlns:xlink="http://www.w3.org/1999/xlink" x="0px" y="0px" viewBox="0 0 24 24" style="enable-background:new 0 0 24 24;" xml:space="preserve">
	<style type="text/css">
		.st0{fill-rule:evenodd;clip-rule:evenodd;}
	</style>
	<g>
		<path class="st0" d="M21.9,0H2.1L0,2.1v19.8L2.1,24h19.8l2.1-2.1V2.1L21.9,0z M22.5,21.4l-1.1,1.1H6.8L1.5,12V2.6l1.1-1.1h18.9
				l1.1,1.1V21.4z">
		</path>
		<path class="st0" d="M13.1,5.3C11,5,8.7,5.8,7.5,7.7c-1.1,1.7-0.9,3.8,0,4.8c0.2,0.3,0.6,0.5,0.9,0.7c0.2,0.1,0.3,0,0.4-0.2
				c0.1-0.3,0.1-0.5,0.2-0.8c0-0.2-0.1-0.3-0.2-0.4c-1-1.2-0.5-4,1.7-5c1.9-0.9,4.9-0.3,5.1,2.5c0.1,1.4-0.3,3.3-1.5,4.1
				c-1.2,0.9-2.6,0-2.3-1.2c0.4-1.5,0.8-2.5,0.7-3.2c-0.3-1.2-2-1.1-2.4,0.4c-0.2,0.7-0.2,1.4,0.1,2c0,0.1,0,0.1,0,0.2
				c-1,4.3-1.1,4.6-1.2,5.4c0,0.6,0,1.2,0.1,1.8c0,0.1,0,0.1,0.1,0.1s0.1,0,0.1-0.1c0.3-0.4,0.6-0.8,0.8-1.3c0.5-0.9,0.6-1.4,1.1-3.4
				c0,0,0-0.1,0-0.1c0.1,0.1,0.2,0.2,0.2,0.3c1.1,1.1,3.4,1,4.8-0.8c1.2-1.5,1.3-3.7,1.2-4.6C17.2,7.3,15.6,5.6,13.1,5.3z">
		</path>
	</g>
</svg>
