<?xml version="1.0" encoding="UTF-8"?> <!-- Generator: Adobe Illustrator 25.0.1, SVG Export Plug-In . SVG Version: 6.00 Build 0) --> <svg xmlns="http://www.w3.org/2000/svg" xmlns:xlink="http://www.w3.org/1999/xlink" id="Layer_1" x="0px" y="0px" viewBox="0 0 16 16" style="enable-background:new 0 0 16 16;" xml:space="preserve"> <style type="text/css"> .st0{fill:#AC2226;} </style> <g> <path class="st0" d="M4,7l4.5,2l0,0h2L15,7V6l-4.5-2h-2L4,6V7z M10.29,5l3.37,1.5l-2.28,1.01L9.32,5H10.29z"></path> <polygon class="st0" points="14,5 14.67,3.67 16,3 14.67,2.33 14,1 13.33,2.33 12,3 13.33,3.67 "></polygon> <polygon class="st0" points="5,4 5.67,2.67 7,2 5.67,1.33 5,0 4.33,1.33 3,2 4.33,2.67 "></polygon> <polygon class="st0" points="2,7 2.67,5.67 4,5 2.67,4.33 2,3 1.33,4.33 0,5 1.33,5.67 "></polygon> <path class="st0" d="M13.81,9.5l-3.5,3H9.5v-1.36l-3.34-1.11L4,10.01V9H0v7h4v0h8.24L16,11.17V9.5H13.81z M3,15l-2-5h2V15z M15,10.83L11.76,15H4v-4h1.92l2.58,0.86v0.64H6v1h3.5h1.19l3.5-3H15V10.83z"></path> </g> </svg> 