<svg version="1.1" id="Layer_1" xmlns="http://www.w3.org/2000/svg" xmlns:xlink="http://www.w3.org/1999/xlink" x="0px" y="0px" viewBox="0 0 24 24" style="enable-background:new 0 0 24 24;" xml:space="preserve">
	<g>
		<path class="st0" d="M21.9,0H2.1L0,2.1v19.8L2.1,24h19.8l2.1-2.1V2.1L21.9,0z M22.5,21.4l-1.1,1.1H6.8L1.5,12V2.6l1.1-1.1h18.9
				l1.1,1.1V21.4z">
		</path>
		<path class="st0" d="M17.7,11.4c0-0.1-0.1-0.3-0.2-0.3c-0.2-0.2-0.4-0.2-0.6-0.1c-0.2,0-0.4,0.2-0.5,0.3c0,0,0,0.1-0.1,0.1
				c0-0.6,0-1.3,0-1.9c-0.3,0-0.5,0-0.8,0c0,1.7,0,3.4,0,5.1c0.2,0,0.4,0,0.7,0c0-0.1,0.1-0.2,0.1-0.3c0,0,0,0,0,0c0,0,0,0,0,0
				c0,0.1,0.1,0.1,0.2,0.2c0.2,0.2,0.4,0.2,0.6,0.2c0.2,0,0.4-0.1,0.5-0.3c0.1-0.2,0.2-0.3,0.2-0.5c0-0.2,0.1-0.4,0.1-0.7
				c0-0.4,0-0.8,0-1.2C17.7,11.7,17.7,11.6,17.7,11.4z M16.9,13.5c0,0.1,0,0.2-0.1,0.3C16.8,14,16.6,14,16.5,14
				c-0.1,0-0.1-0.1-0.2-0.1c0,0,0,0,0-0.1c0-0.3,0-0.7,0-1c0-0.3,0-0.6,0-0.9c0-0.1,0-0.2,0.1-0.3c0,0,0.1-0.1,0.2-0.1
				c0.1,0,0.2,0,0.3,0.2c0,0.1,0.1,0.2,0.1,0.4c0,0.3,0,0.6,0,1C17,13.1,17,13.3,16.9,13.5z">
		</path>
		<path class="st0" d="M14.3,10.9C14.3,10.9,14.3,10.9,14.3,10.9c0,0.9,0,1.9,0,2.8c0,0.1,0,0.1-0.1,0.2C14.1,13.9,14.1,14,14,14
				c-0.1,0-0.2,0-0.2-0.2c0-0.1,0-0.2,0-0.3c0-0.9,0-1.7,0-2.6c0,0,0,0,0,0c-0.3,0-0.5,0-0.8,0c0,0,0,0,0,0c0,0.5,0,1,0,1.6
				c0,0.4,0,0.8,0,1.3c0,0.1,0,0.3,0.1,0.4c0.1,0.1,0.2,0.3,0.3,0.3c0.1,0,0.2,0.1,0.3,0.1c0.2,0,0.3,0,0.5-0.1
				c0.1-0.1,0.2-0.2,0.3-0.3c0,0,0,0,0,0c0,0,0,0,0,0c0,0.1,0,0.2,0.1,0.4c0,0,0,0,0,0c0.2,0,0.4,0,0.6,0c0,0,0,0,0,0
				c0-1.2,0-2.4,0-3.6c0,0,0,0,0,0C14.8,10.9,14.6,10.9,14.3,10.9z">
		</path>
		<path class="st0" d="M10.2,11c0,0.1,0,0.2,0,0.3c0,0.8,0,1.6,0,2.4c0,0,0,0,0,0.1C10.1,13.9,10,14,9.9,14c-0.1,0-0.2,0-0.2-0.2
				c0-0.1,0-0.2,0-0.3c0-0.9,0-1.7,0-2.6c0,0,0,0,0,0c-0.2,0-0.5,0-0.7,0c0,0,0,0,0,0c0,0,0,0,0,0c0,0.8,0,1.7,0,2.5
				c0,0.1,0,0.2,0,0.3c0,0.1,0,0.3,0.1,0.4c0.1,0.2,0.2,0.3,0.3,0.4c0.1,0,0.2,0,0.4,0c0.2,0,0.3-0.1,0.4-0.2c0.1-0.1,0.2-0.2,0.3-0.3
				c0,0,0,0,0,0c0,0,0,0,0,0c0,0.1,0,0.3,0.1,0.4c0,0,0,0,0,0c0.2,0,0.4,0,0.6,0c0,0,0,0,0,0c0-1.2,0-2.4,0-3.6
				C10.7,10.9,10.4,10.9,10.2,11C10.2,10.9,10.2,11,10.2,11z">
		</path>
		<path class="st0" d="M8.2,11.4c-0.1-0.3-0.3-0.5-0.6-0.5c-0.2,0-0.4,0-0.6,0c-0.2,0-0.3,0.1-0.5,0.2s-0.2,0.3-0.3,0.5
				c-0.1,0.2-0.1,0.4-0.1,0.7c0,0.4,0,0.8,0,1.2c0,0.2,0,0.4,0.1,0.5c0.1,0.3,0.3,0.4,0.6,0.5c0.2,0,0.4,0.1,0.6,0
				c0.1,0,0.3-0.1,0.4-0.1c0.2-0.1,0.3-0.3,0.4-0.5c0.1-0.2,0.1-0.4,0.1-0.6c0-0.2,0-0.4,0-0.6c0-0.2,0-0.4,0-0.6
				C8.3,11.8,8.3,11.6,8.2,11.4z M7.6,13.3c0,0.2,0,0.3,0,0.5c0,0.1,0,0.1-0.1,0.2c-0.1,0.2-0.3,0.1-0.4,0C7,13.8,7,13.7,7,13.6
				c0-0.1,0-0.3,0-0.4c0-0.4,0-0.8,0-1.2c0-0.2,0-0.3,0.1-0.4c0.1-0.2,0.2-0.2,0.4-0.1c0.1,0,0.1,0.1,0.1,0.2c0,0.2,0,0.3,0,0.4
				c0,0.2,0,0.4,0,0.6C7.6,12.9,7.6,13.1,7.6,13.3z">
		</path>
		<path class="st0" d="M6.4,9.6C6.3,9.6,6.3,9.6,6.4,9.6c-0.3,0-0.5,0-0.7,0c0,0-0.1,0-0.1,0s0,0.1,0,0.1c-0.1,0.4-0.2,0.8-0.3,1.1
				c0,0.2-0.1,0.4-0.1,0.5c0,0.2-0.1,0.4-0.1,0.6c0,0,0,0,0,0c0,0,0,0,0,0c0-0.1,0-0.3-0.1-0.4c-0.1-0.3-0.1-0.5-0.2-0.8
				C4.7,10.4,4.6,10,4.5,9.6c0,0,0,0,0,0c-0.2,0-0.3,0-0.5,0c-0.1,0-0.2,0-0.3,0c0,0,0,0,0,0c0.1,0.3,0.2,0.6,0.2,0.9
				c0.1,0.4,0.2,0.8,0.3,1.2c0.1,0.4,0.2,0.7,0.3,1.1c0,0.1,0,0.2,0,0.3c0,0.5,0,0.9,0,1.4c0,0,0,0,0,0c0,0,0,0,0,0c0.2,0,0.5,0,0.7,0
				c0,0,0,0,0,0c0-0.5,0-1,0-1.5c0,0,0-0.1,0-0.1c0.1-0.2,0.1-0.5,0.2-0.7c0.1-0.2,0.1-0.5,0.2-0.7C5.9,11.2,6,11,6.1,10.7
				c0.1-0.3,0.2-0.5,0.2-0.8C6.3,9.8,6.3,9.7,6.4,9.6z">
		</path>
		<path class="st0" d="M13.1,10.2c0-0.2,0-0.4,0-0.6c0,0,0,0,0,0c-0.7,0-1.3,0-2,0c-0.1,0-0.2,0-0.3,0c0,0.2,0,0.4,0,0.6
				c0.3,0,0.5,0,0.8,0c0,1.4,0,2.8,0,4.2c0.3,0,0.5,0,0.8,0c0-1.4,0-2.8,0-4.2C12.6,10.3,12.9,10.3,13.1,10.2
				C13.1,10.2,13.1,10.2,13.1,10.2z">
		</path>
		<path class="st0" d="M19.2,10.9c-0.8,0-1.1,0.5-1.1,1.4c0,0.9,0,0,0,0.9c0,0.8,0.2,1.5,1,1.5c0.8,0,1.1-0.4,1.1-1.1l-0.7,0
				c0,0,0,0.3,0,0.4c0,0.2-0.1,0.2-0.3,0.2c-0.1,0-0.3-0.1-0.3-0.3s0-0.7,0-0.7h1.3c0,0,0-0.2,0-0.9C20.2,11.4,20,10.9,19.2,10.9z
				M19.5,12.5h-0.6c0,0,0-0.3,0-0.6c0-0.3,0-0.6,0.3-0.6c0.3,0,0.3,0.3,0.3,0.6C19.5,12.2,19.5,12.5,19.5,12.5z">
		</path>
	</g>
</svg>
