<?xml version="1.0" encoding="utf-8"?>
<!-- Generator: Adobe Illustrator 24.0.0, SVG Export Plug-In . SVG Version: 6.00 Build 0)  -->
<svg version="1.1" id="Layer_1" xmlns="http://www.w3.org/2000/svg" xmlns:xlink="http://www.w3.org/1999/xlink" x="0px" y="0px"
	 viewBox="0 0 16 16" style="enable-background:new 0 0 16 16;" xml:space="preserve">
<style type="text/css">
	.st0{fill:#AC2226;}
</style>
<g>
	<polygon class="st0" points="1,8 1,15 4.5,15 	"/>
	<g>
		<path class="st0" d="M14.6,0H1.4L0,1.4v13.2L1.4,16h13.2l1.4-1.4V1.4L14.6,0z M15,14.3L14.3,15H1.7L1,14.3V1.7L1.7,1h12.6L15,1.7
			V14.3z"/>
	</g>
	<path class="st0" d="M8.6,4c0-0.2,0-0.5,0-0.7c0-0.1,0-0.1,0.1-0.1c0.5,0,0.9,0,1.4,0c0.8,0,1.6,0,2.4,0c0,0.3-0.1,0.6-0.3,0.9
		c-0.6,0.8-1.3,1.6-1.9,2.4c-0.2,0.2-0.4,0.5-0.6,0.8c0,0,0.1,0,0.1,0c0.9,0,1.8,0,2.6,0c0.1,0,0.1,0,0.1,0.1c0,0.1,0,0.2,0,0.4
		c0,0.2-0.1,0.3-0.3,0.3c-0.1,0-0.3,0-0.4,0c-1,0-2.1,0-3.2,0c-0.1,0-0.1,0-0.1-0.1c0-0.3,0.1-0.5,0.3-0.8c0.8-1,1.6-2,2.5-3
		c0,0,0,0,0.1-0.1C10.4,4,9.5,4,8.6,4z"/>
	<path class="st0" d="M5.8,0C3,2.6,2.7,6.8,4.9,9.7l-1,2.8l3-1c1.1,0.7,2.4,1,3.7,1c2,0,3.9-0.8,5.4-2.4V1.4L14.6,0H5.8z M15,9.8
		c-1.2,1.1-2.7,1.8-4.4,1.8c-1.7,0-3.2-0.6-4.4-1.8C5,8.5,4.4,6.9,4.4,5.2c0-1.6,0.7-3.1,1.8-4.2H15V9.8z"/>
</g>
</svg>
