<svg version="1.1" id="Layer_1" xmlns="http://www.w3.org/2000/svg" xmlns:xlink="http://www.w3.org/1999/xlink" x="0px" y="0px" viewBox="0 0 24 24" style="enable-background:new 0 0 24 24;" xml:space="preserve">
	<g>
		<path class="st0" d="M13.2,10.6c-0.3,0.3-0.4,0.7-0.4,1.2c0,0.1,0,0.2,0.2,0.2c1.6,0,3.2,0,4.7,0c0.2,0,0.4,0,0.6,0
				c0.3,0,0.5-0.2,0.5-0.5c0-0.2,0-0.3,0-0.5c0-0.1,0-0.1-0.1-0.1c-1.3,0-2.6,0-3.9,0c0,0-0.1,0-0.2,0c0.3-0.4,0.6-0.8,0.9-1.1
				c1-1.2,1.9-2.4,2.9-3.6c0.3-0.4,0.5-0.8,0.4-1.3c-1.2,0-2.4,0-3.6,0c-0.7,0-1.4,0-2.1,0c-0.1,0-0.1,0-0.1,0.1c0,0.4,0,0.7,0,1.1
				c1.3,0,2.7,0,4,0c0,0.1-0.1,0.1-0.1,0.1C15.7,7.6,14.4,9.1,13.2,10.6z">
		</path>
		<path class="st0" d="M21.9,0H8.7H2.1L0,2.1v19.8L2.1,24h19.8l2.1-2.1v-6.6V2.1L21.9,0z M21.4,1.5l1.1,1.1v12.1
				c-1.8,1.7-4.1,2.7-6.5,2.7c-2.5,0-4.8-1-6.6-2.7c-1.8-1.8-2.8-4.2-2.7-6.8c0.1-2.4,1-4.6,2.7-6.3L21.4,1.5L21.4,1.5z M22.5,21.4
				l-1.1,1.1H6.8L1.5,12V2.6l1.1-1.1h4.8c-2.9,3.9-2.9,9.2,0,13.1l-1.5,4.3l4.6-1.5c1.7,1,3.6,1.5,5.5,1.5c2.3,0,4.6-0.7,6.5-2.2V21.4
				z">
		</path>
	</g>
</svg>
