<svg xmlns:xlink="http://www.w3.org/1999/xlink" xmlns="http://www.w3.org/2000/svg" viewBox="0 0 39.333 32.817" width="39.333" height="32.817">
	<path id="headset" d="M34.449,19.1V16.768a14.768,14.768,0,0,0-29.535,0V19.1A8.2,8.2,0,0,0,8.2,34.817a3.282,3.282,0,0,0,3.282-3.282V21.69A3.282,3.282,0,0,0,8.2,18.409V16.768a11.486,11.486,0,1,1,22.972,0v1.641a3.282,3.282,0,0,0-3.282,3.282v9.845H22.963a1.641,1.641,0,0,0,0,3.282h8.2A8.2,8.2,0,0,0,34.449,19.1ZM8.2,31.535h0a4.923,4.923,0,1,1,0-9.845Zm22.972,0V21.69a4.923,4.923,0,1,1,0,9.845Z" transform="translate(-0.014 -2)" fill="#FFFFFF">
	</path>
</svg>
