<svg xmlns:xlink="http://www.w3.org/1999/xlink" xmlns="http://www.w3.org/2000/svg" viewBox="0 0 40 40" width="52" height="52">
	<g id="Group_1092" data-name="Group 1092" transform="translate(-476 -1551)" fill="#00DCA0">
		<rect id="Rectangle_247" data-name="Rectangle 247" width="40" height="40" transform="translate(476 1551)" fill="none">
		</rect>
		<g id="Layer_2" data-name="Layer 2" transform="translate(471.044 1549.028)" fill="#00DCA0">
			<path id="Path_2927" data-name="Path 2927" d="M40.48,18.967a3.753,3.753,0,0,0-1.612-2.114,2.9,2.9,0,0,0,.643-2.1,3.11,3.11,0,0,0-1.781-2.171,4.074,4.074,0,0,0-1.578-3.006c-.218-.18-.429-.383-.639-.551a6.306,6.306,0,0,0-5.361-2.045,2.814,2.814,0,0,0-1.467-1.616,3.513,3.513,0,0,0-3.144.59l-.685-.061a4.286,4.286,0,0,0-3.328-.816,2.884,2.884,0,0,0-1.773,1.8,4.955,4.955,0,0,0-3.128.923,6.218,6.218,0,0,0-2.248,4.147c-.938.348-3.956,2.072-3.791,9.791A5.2,5.2,0,0,0,10.1,25.3a3.753,3.753,0,0,0,1.612,2.133,2.9,2.9,0,0,0-.643,2.1,3.11,3.11,0,0,0,1.781,2.171A4.074,4.074,0,0,0,14.422,34.7c.218.18.429.383.639.551a6.3,6.3,0,0,0,5.361,2.045,3.09,3.09,0,0,0,1.451,1.532,3.663,3.663,0,0,0,3-.13l.59.042a5.514,5.514,0,0,0,2.485.708,2.964,2.964,0,0,0,2.876-2.052,4.947,4.947,0,0,0,3.128-.923A6.218,6.218,0,0,0,36.2,32.323c.938-.348,3.956-2.072,3.791-9.791A5.226,5.226,0,0,0,40.48,18.967ZM24.75,37.895v.034l-.088.038a2.962,2.962,0,0,1-2.443.18,2.259,2.259,0,0,1-1.045-1.306l.881-1.344-.643-.421-.885,1.352-.077.1c-2.493.241-3.6-.728-4.867-1.849-.214-.188-.433-.383-.655-.567a3.4,3.4,0,0,1-1.275-2.144h.023a5.124,5.124,0,0,0,1.447.234,2.217,2.217,0,0,0,1.976-.95l-.643-.421c-.766,1.149-2.914.31-3.4.1a2.223,2.223,0,0,1-1.214-1.5,2.446,2.446,0,0,1,.735-1.807l.383-.364-.46-.253a3.167,3.167,0,0,1-1.643-1.915,4.4,4.4,0,0,1,.356-2.853l.054-.031c.693-.333,2.037-.766,2.5-.383a6.044,6.044,0,0,0,2.179,1.405l.149-.766a4.893,4.893,0,0,1-1.823-1.225c-.728-.639-2.029-.276-2.818.038l-.088.038c-.057-7.13,2.784-8.5,3.347-8.7l.1.054c.5.287,1.723,1.313.877,4.174a2.8,2.8,0,0,1-1.149,1.57l.28.731A3,3,0,0,0,16.2,17.642h0c2.271-.823,4.752,1.149,4.775,1.179l.482-.582c-.107-.088-2.466-1.984-4.951-1.47h0c.766-2.956-.54-4.212-1.248-4.668l-.111-.073a5.437,5.437,0,0,1,1.915-3.592,4.212,4.212,0,0,1,2.88-.766l.318.05.107-.3a2.269,2.269,0,0,1,1.371-1.6c1.225-.383,2.719.766,2.734.766a1.049,1.049,0,0,1,.172.2,4.978,4.978,0,0,1,.042,4.871,1.562,1.562,0,0,1-.264.352,6.291,6.291,0,0,0-3.293-.084v-.031a2.64,2.64,0,0,0-2.217-1.011v.766a2.22,2.22,0,0,1,1.482.532h0A4.438,4.438,0,0,0,18.7,13.614l.624.452A4.3,4.3,0,0,1,24.133,12.7v.019a6.659,6.659,0,0,0,.348,3.829c1.076,3.224-.172,5.093-.226,5.166l-.046.088a5.8,5.8,0,0,0,.816,5.093c1.256,1.8-.191,3.733-.655,4.27l-.042.038c-.031,0-.157-.034-.356-.069-1-.214-2.837-.808-3.259-1.819a1.6,1.6,0,0,1,.383-1.589c.823-1.149.67-1.892.383-2.32a2.572,2.572,0,0,0-2.654-.766,2.426,2.426,0,0,0-2.125,1.7l.766.153c.13-.632.865-.984,1.513-1.1a1.907,1.907,0,0,1,1.865.44c.257.406-.115,1.1-.383,1.463a2.314,2.314,0,0,0-.456,2.332,3.2,3.2,0,0,0,1.532,1.47,3.552,3.552,0,0,0-3.1,2.244l.724.26c.789-2.175,3.971-1.915,4.871-1.746l.272.054S26.151,33,24.75,37.895Zm14.627-15.86c-.383.2-1.742.8-2.627.341-.322-.168-.383-.463-.456-.927a1.4,1.4,0,0,0-.885-1.336l-.23.735c.222.069.276.214.352.72a1.731,1.731,0,0,0,.858,1.49,2.42,2.42,0,0,0,1.149.26,4.538,4.538,0,0,0,1.612-.337l.073-.027c.05,7.153-2.811,8.493-3.354,8.685-.479-.264-1.83-1.313-.969-4.212a2.8,2.8,0,0,1,1.149-1.57l-.314-.7a3,3,0,0,0-1.379,1.513c-2.267.816-4.756-1.149-4.779-1.183l-.46.559A7.279,7.279,0,0,0,33.193,27.6a4.538,4.538,0,0,0,.888-.088,5.246,5.246,0,0,0,0,3.029h0c-1,.383-2.512.766-3.117.348l-.44.628a2.163,2.163,0,0,0,1.248.325A7.819,7.819,0,0,0,34.4,31.24h.019a3.4,3.4,0,0,0,1.045,1.011,5.447,5.447,0,0,1-1.915,3.6,4.212,4.212,0,0,1-2.68.766l-.988-1.57-.666.383.923,1.6a2.428,2.428,0,0,1-1.382,1.532,4.12,4.12,0,0,1-2.975-.5l-.08-.046v-.046c1.229-4.258-.084-5.682-.651-6.368.9-1.084,1.941-3.213.617-5.112a5.039,5.039,0,0,1-.739-4.346,6.569,6.569,0,0,0,.505-5.077,6.112,6.112,0,0,0,.651.13c.973.3,2.144.831,2.466,1.612a1.6,1.6,0,0,1-.383,1.589c-.819,1.149-.67,1.892-.383,2.32a2.257,2.257,0,0,0,1.961.846,3.879,3.879,0,0,0,.693-.061,2.426,2.426,0,0,0,2.125-1.7l-.766-.153c-.13.632-.865.984-1.513,1.1a1.907,1.907,0,0,1-1.865-.44c-.257-.406.115-1.1.383-1.463a2.314,2.314,0,0,0,.456-2.332,2.979,2.979,0,0,0-1.29-1.348,3.592,3.592,0,0,0,2.86-2.374l-.72-.272c-.766,2.01-2.68,2.079-3.917,1.9a10.366,10.366,0,0,0-1.026-.245,5.344,5.344,0,0,1-.214-3.446l.046-.1a6.732,6.732,0,0,0,.766-1.467h0A4.457,4.457,0,0,0,28.828,12.5a4.6,4.6,0,0,0,2.9-1.149l-.532-.555c-.1.1-2.55,2.225-5.215-.49a6.173,6.173,0,0,0-.226-3.488l-.034-.088.107-.065a2.928,2.928,0,0,1,2.554-.6,2.259,2.259,0,0,1,1.149,1.4l.08.329.337-.038c2.619-.3,3.768.693,5.062,1.842.214.188.433.383.655.567a3.416,3.416,0,0,1,1.271,2.087c-.988-.28-2.631-.479-3.446.766l.643.421c.571-.869,2.095-.605,2.887-.383l.142.057c.957.494,1.49,1.068,1.581,1.708a2.446,2.446,0,0,1-.735,1.807L37.623,17l.459.253a3.167,3.167,0,0,1,1.643,1.915A4.35,4.35,0,0,1,39.377,22.034Z" stroke-width="0.5px" fill="#00DCA0">
			</path>
		</g>
	</g>
</svg>
