<svg xmlns:xlink="http://www.w3.org/1999/xlink" xmlns="http://www.w3.org/2000/svg" viewBox="0 0 40 40" width="52" height="52">
	<g id="_8" data-name="6" transform="translate(-374 -1291)" fill="#00DCA0">
		<rect id="Rectangle_251" data-name="Rectangle 251" width="40" height="40" transform="translate(374 1291)" fill="none">
		</rect>
		<g id="_6092268_care_covid_good_health_healthcare_icon" data-name="6092268_care_covid_good_health_healthcare_icon" transform="translate(360.95 1277.468)" fill="#00DCA0">
			<path id="Path_3146" data-name="Path 3146" d="M77.978,58.844a.639.639,0,0,0,.446.188.629.629,0,0,0,.446-.188.659.659,0,0,0,.142-.208.644.644,0,0,0,.046-.238.618.618,0,0,0-.188-.451.649.649,0,0,0-.892,0,.629.629,0,0,0-.188.451.558.558,0,0,0,.051.238A.573.573,0,0,0,77.978,58.844Z" transform="translate(-30.444 -20.334)" fill="#00DCA0">
			</path>
			<path id="Path_3147" data-name="Path 3147" d="M77.861,64.149a.573.573,0,0,0,.137.208.552.552,0,0,0,.2.137.669.669,0,0,0,.243.046.623.623,0,0,0,.446-.182.659.659,0,0,0,.142-.208.644.644,0,0,0,.046-.238,1.013,1.013,0,0,0,0-.127.613.613,0,0,0-.1-.228.74.74,0,0,0-.081-.1.355.355,0,0,0-.1-.076.446.446,0,0,0-.106-.061.507.507,0,0,0-.117-.035.629.629,0,0,0-.573.172.741.741,0,0,0-.081.1.766.766,0,0,0-.056.112.446.446,0,0,0-.035.117.507.507,0,0,0,0,.127.558.558,0,0,0,.025.238Z" transform="translate(-30.464 -23.049)" fill="#00DCA0">
			</path>
			<path id="Path_3148" data-name="Path 3148" d="M81.812,60.929a.6.6,0,0,0-.061-.112.426.426,0,0,0-.076-.091.654.654,0,0,0-.9,0,.639.639,0,0,0-.188.446.674.674,0,0,0,.051.243.553.553,0,0,0,.137.2.618.618,0,0,0,.208.137.558.558,0,0,0,.238.051.664.664,0,0,0,.451-.188.553.553,0,0,0,.137-.2.674.674,0,0,0,.051-.243.573.573,0,0,0,0-.127A1.014,1.014,0,0,0,81.812,60.929Z" transform="translate(-31.824 -21.705)" fill="#00DCA0">
			</path>
			<path id="Path_3149" data-name="Path 3149" d="M75.417,61.756a.568.568,0,0,0,.243.051.623.623,0,0,0,.446-.188.552.552,0,0,0,.137-.2.674.674,0,0,0,.051-.243.639.639,0,0,0-.188-.446.654.654,0,0,0-.9,0,.426.426,0,0,0-.076.091.6.6,0,0,0-.061.112,1.017,1.017,0,0,0-.035.117.537.537,0,0,0,0,.127.669.669,0,0,0,.046.243.629.629,0,0,0,.345.34Z" transform="translate(-29.084 -21.705)" fill="#00DCA0">
			</path>
			<path id="Path_3150" data-name="Path 3150" d="M75.643,19.569a.644.644,0,0,0,.446-.182.623.623,0,0,0,.188-.446.638.638,0,0,0-.771-.623l-.117.035a.476.476,0,0,0-.112.061.456.456,0,0,0-.1.076.634.634,0,0,0,.451,1.08Z" transform="translate(-29.067 -0.874)" fill="#00DCA0">
			</path>
			<path id="Path_3151" data-name="Path 3151" d="M75.217,24.958a.644.644,0,0,0,.451.182.689.689,0,0,0,.243-.046.6.6,0,0,0,.2-.137.629.629,0,0,0,.188-.451.507.507,0,0,0,0-.122.446.446,0,0,0-.035-.117.765.765,0,0,0-.056-.112.74.74,0,0,0-.081-.1.664.664,0,0,0-.9,0,.634.634,0,0,0-.182.446.644.644,0,0,0,.167.451Z" transform="translate(-29.092 -3.626)" fill="#00DCA0">
			</path>
			<path id="Path_3152" data-name="Path 3152" d="M78.415,22.348a.633.633,0,1,0-.1-1.257l-.122.035-.106.061a.7.7,0,0,0-.1.076c-.03.03-.056.066-.081.1a.765.765,0,0,0-.056.112.6.6,0,0,0-.035.117.574.574,0,0,0,0,.127.618.618,0,0,0,.188.446.6.6,0,0,0,.2.137A.583.583,0,0,0,78.415,22.348Z" transform="translate(-30.455 -2.244)" fill="#00DCA0">
			</path>
			<path id="Path_3153" data-name="Path 3153" d="M72.895,22.355a.639.639,0,0,0,.451-.188.715.715,0,0,0,.137-.2.689.689,0,0,0,.046-.243,1.163,1.163,0,0,0,0-.127.157.157,0,0,0-.035-.117.476.476,0,0,0-.061-.112l-.076-.1a.664.664,0,0,0-.9,0c-.03.03-.056.066-.081.1a.765.765,0,0,0-.056.112.6.6,0,0,0-.035.117.573.573,0,0,0,0,.127.618.618,0,0,0,.188.446.6.6,0,0,0,.2.137A.583.583,0,0,0,72.895,22.355Z" transform="translate(-27.728 -2.251)" fill="#00DCA0">
			</path>
			<path id="Path_3154" data-name="Path 3154" d="M19.012,62.613a.654.654,0,0,0-.182.451.669.669,0,0,0,.046.243.679.679,0,0,0,.137.2.629.629,0,0,0,.9,0,.6.6,0,0,0,.137-.2.583.583,0,0,0,.051-.243.639.639,0,0,0-1.085-.451Z" transform="translate(-1.371 -22.633)" fill="#00DCA0">
			</path>
			<path id="Path_3155" data-name="Path 3155" d="M19.337,67.989l-.117.035a.477.477,0,0,0-.112.061.705.705,0,0,0-.1.076.644.644,0,0,0,0,.9.629.629,0,0,0,.451.188.639.639,0,0,0,.446-.188.623.623,0,0,0,.188-.446.659.659,0,0,0-.188-.451.644.644,0,0,0-.573-.172Z" transform="translate(-1.371 -25.367)" fill="#00DCA0">
			</path>
			<path id="Path_3156" data-name="Path 3156" d="M22.685,66.288a.644.644,0,0,0,.182-.451.634.634,0,0,0-.182-.446.644.644,0,0,0-.573-.172.553.553,0,0,0-.122.035l-.106.056a.507.507,0,0,0-.1.081.618.618,0,0,0-.188.446.634.634,0,0,0,.634.634A.654.654,0,0,0,22.685,66.288Z" transform="translate(-2.737 -24.002)" fill="#00DCA0">
			</path>
			<path id="Path_3157" data-name="Path 3157" d="M17.272,65.629a.573.573,0,0,0-.061-.106.7.7,0,0,0-.076-.1.654.654,0,0,0-.9,0,.639.639,0,0,0-.188.446.629.629,0,0,0,.188.451.679.679,0,0,0,.2.137.669.669,0,0,0,.243.046.654.654,0,0,0,.451-.182.644.644,0,0,0,.182-.451.984.984,0,0,0,0-.122,1.1,1.1,0,0,0-.046-.122Z" transform="translate(0 -24.022)" fill="#00DCA0">
			</path>
			<path id="Path_3158" data-name="Path 3158" d="M20.95,16.718a.613.613,0,0,0-.573-.172.446.446,0,0,0-.117.035l-.112.056-.1.081a.634.634,0,0,0-.182.446.649.649,0,0,0,.046.243.623.623,0,0,0,.137.2.72.72,0,0,0,.208.142.649.649,0,0,0,.243.046.623.623,0,0,0,.446-.188.553.553,0,0,0,.137-.2.568.568,0,0,0,.051-.243A.639.639,0,0,0,20.95,16.718Z" transform="translate(-1.884)" fill="#00DCA0">
			</path>
			<path id="Path_3159" data-name="Path 3159" d="M20.813,22.185a1.14,1.14,0,0,0-.106-.061l-.122-.035a.644.644,0,0,0-.573.172.654.654,0,0,0-.182.451.669.669,0,0,0,.046.243.633.633,0,0,0,1.034.2.553.553,0,0,0,.137-.2.583.583,0,0,0,.051-.243.659.659,0,0,0-.188-.451A.7.7,0,0,0,20.813,22.185Z" transform="translate(-1.864 -2.734)" fill="#00DCA0">
			</path>
			<path id="Path_3160" data-name="Path 3160" d="M22.818,19.5a.629.629,0,0,0-.188.451.558.558,0,0,0,.051.238.618.618,0,0,0,.137.208.6.6,0,0,0,.2.137.674.674,0,0,0,.243.051.654.654,0,0,0,.243-.051.618.618,0,0,0,.208-.137.821.821,0,0,0,.117-.223.619.619,0,0,0-1.014-.674Z" transform="translate(-3.245 -1.376)" fill="#00DCA0">
			</path>
			<path id="Path_3161" data-name="Path 3161" d="M18.272,20.15a.649.649,0,0,0-.137-.689.634.634,0,0,0-.573-.172l-.122.035a.573.573,0,0,0-.106.061.456.456,0,0,0-.1.076.639.639,0,0,0-.188.451.558.558,0,0,0,.051.238.618.618,0,0,0,.137.208.6.6,0,0,0,.2.137.694.694,0,0,0,.243.051.654.654,0,0,0,.243-.051.618.618,0,0,0,.208-.137.821.821,0,0,0,.137-.208Z" transform="translate(-0.493 -1.353)" fill="#00DCA0">
			</path>
			<path id="Path_3162" data-name="Path 3162" d="M44.175,69.78a.639.639,0,0,0-.456.193,8.754,8.754,0,0,1-12.673,0,.644.644,0,0,0-.456-.193c-3.705,0-6.25.882-7.573,2.616a4.836,4.836,0,0,0-.821,3.979.623.623,0,0,0,.776.441.639.639,0,0,0,.446-.776,3.548,3.548,0,0,1,.644-2.894c1.014-1.333,3.2-2.058,6.291-2.094a10.022,10.022,0,0,0,14.092,0c3.092.035,5.262.76,6.291,2.094a3.574,3.574,0,0,1,.623,2.894.634.634,0,1,0,1.222.335,4.871,4.871,0,0,0-.826-3.979C50.421,70.662,47.886,69.78,44.175,69.78Z" transform="translate(-2.968 -26.256)" fill="#00DCA0">
			</path>
			<path id="Path_3163" data-name="Path 3163" d="M28.269,43.523a1.014,1.014,0,0,0,0-.127V39.68a.76.76,0,1,0-1.521,0v3.705a.507.507,0,0,0,0,.127,2.479,2.479,0,1,0,1.521,0Z" transform="translate(-4.428 -11.04)" fill="#00DCA0">
			</path>
			<path id="Path_3164" data-name="Path 3164" d="M51.594,27.779a34.819,34.819,0,0,1-4.562.684h0c-1.065-6-5.358-10.163-10.6-10.163a10.265,10.265,0,0,0-8.384,4.674,3.072,3.072,0,0,0-6.017.887V31.6a5.125,5.125,0,0,0,5.911,8.349c2.073,3.447,5.2,5.475,8.491,5.475,5.069,0,9.535-4.8,10.6-11.238a2.818,2.818,0,0,0,2.225-2.854,3.041,3.041,0,0,0-.547-1.749c1.014-.132,2.068-.309,3.153-.547a.64.64,0,0,0-.269-1.252ZM36.428,19.567c4.562,0,8.328,3.675,9.312,9a29.579,29.579,0,0,1-13.453-2.291.634.634,0,1,0-.568,1.13A29.2,29.2,0,0,0,44.1,29.888c.446,0,.9,0,1.359-.03l-4.2,6.539a7.1,7.1,0,0,0-4.187-1.744,10.231,10.231,0,0,0-1.115,0A7.1,7.1,0,0,0,31.774,36.4l-1.688-2.631a.634.634,0,0,0-.36-.259A5.1,5.1,0,0,0,28.17,31.6V25.245C29.878,21.7,32.955,19.567,36.428,19.567ZM21.22,35.7a3.857,3.857,0,0,1,1.763-3.239.639.639,0,0,0,.29-.507v-8.09a1.81,1.81,0,1,1,3.614,0v8.065a.639.639,0,0,0,.289.507,3.852,3.852,0,0,1,1.039,5.485h0a3.239,3.239,0,0,1-.238.3h0c-.081.091-.167.177-.259.264a3.852,3.852,0,0,1-6.468-2.839Zm7.669,3.427.035-.046c.076-.086.152-.177.223-.274l.071-.091c.071-.1.137-.2.2-.3l.056-.086c.066-.106.122-.218.177-.329l.046-.086c.056-.112.106-.228.152-.345a.125.125,0,0,1,.035-.1,1.6,1.6,0,0,0,.117-.34l.03-.137q.046-.157.076-.319a1.626,1.626,0,0,1,.035-.218.652.652,0,0,1,.025-.177l.776,1.212L30.1,40.852a12.455,12.455,0,0,1-1.186-1.729Zm2.241,2.813,1.095-4.248a5.88,5.88,0,0,1,3.807-1.8,7.791,7.791,0,0,1,.973,0,5.88,5.88,0,0,1,3.807,1.779l1.044,4.141a7.948,7.948,0,0,1-5.424,2.342,7.882,7.882,0,0,1-5.282-2.215Zm15.511-8.993h-.1a.629.629,0,0,0-.684.542,14.614,14.614,0,0,1-2.986,7.2l-.811-3.209,4.947-7.675a1.592,1.592,0,0,1,.983,1.521,1.521,1.521,0,0,1-1.348,1.617Z" transform="translate(-2.007 -0.872)" fill="#00DCA0">
			</path>
			<path id="Path_3165" data-name="Path 3165" d="M52.13,55.218l-.806-.35a2.327,2.327,0,0,0-1.825,0l-.806.35a.634.634,0,1,0,.507,1.161l.806-.345a1.014,1.014,0,0,1,.821,0l.806.345a.632.632,0,1,0,.5-1.161Z" transform="translate(-15.9 -18.812)" fill="#00DCA0">
			</path>
			<path id="Path_3166" data-name="Path 3166" d="M43.654,44.771a.634.634,0,0,0,.634-.634.39.39,0,1,1,.781,0,.634.634,0,1,0,1.267,0,1.658,1.658,0,1,0-3.315,0,.634.634,0,0,0,.634.634Z" transform="translate(-13.299 -12.795)" fill="#00DCA0">
			</path>
			<path id="Path_3167" data-name="Path 3167" d="M56.144,44.861a.634.634,0,0,0,.623-.629.4.4,0,0,1,.786,0,.634.634,0,1,0,1.267,0,1.663,1.663,0,0,0-3.32,0,.634.634,0,0,0,.644.629Z" transform="translate(-19.453 -12.884)" fill="#00DCA0">
			</path>
		</g>
	</g>
</svg>
