<svg xmlns:xlink="http://www.w3.org/1999/xlink" xmlns="http://www.w3.org/2000/svg" viewBox="0 0 40 40" width="52" height="52">
	<g id="Group_1992" transform="translate(-373 -1287)" fill="#00DCA0">
		<rect id="Rectangle_261" data-name="Rectangle 261" width="40" height="40" transform="translate(373 1287)" fill="none">
		</rect>
		<g id="_5929106_bacteria_health_infection_malware_virus_icon" data-name="5929106_bacteria_health_infection_malware_virus_icon" transform="translate(373 1287)" fill="#00DCA0">
			<path id="Path_2931" data-name="Path 2931" d="M42.452,28.227a2.226,2.226,0,1,1-.569-1.484" transform="translate(-14.834 -10.024)" stroke-linejoin="round" stroke-width="1.3px" fill="#00DCA0">
			</path>
			<circle id="Ellipse_10" data-name="Ellipse 10" cx="1.5" cy="1.5" r="1.5" transform="translate(21.349 23.791)" stroke-linejoin="round" stroke-width="1.3px" fill="#00DCA0">
			</circle>
			<circle id="Ellipse_11" data-name="Ellipse 11" cx="1.5" cy="1.5" r="1.5" transform="translate(17.279 13.209)" stroke-linejoin="round" stroke-width="1.3px" fill="#00DCA0">
			</circle>
			<path id="Path_2932" data-name="Path 2932" d="M21.4,32.483a2.968,2.968,0,1,1-.4,1.484" transform="translate(-8.124 -12.186)" stroke-linejoin="round" stroke-width="1.3px" fill="#00DCA0">
			</path>
			<path id="Path_2933" data-name="Path 2933" d="M38.38,30.557A12.157,12.157,0,0,1,39.9,31.645l1.276,1.093v.014a2.123,2.123,0,1,0,2.1-1.8H43.26l-1.276-1.092a17.456,17.456,0,0,1-3.4-4.457,10.364,10.364,0,0,0,1.674-3.795,20.693,20.693,0,0,1,5.12-.841h2.1a1.31,1.31,0,0,0,1.4-1.2,1.31,1.31,0,0,0-1.4-1.2h-2.1a20.694,20.694,0,0,1-5.12-.839A10.364,10.364,0,0,0,38.58,13.74a17.456,17.456,0,0,1,3.4-4.457L43.26,8.189h.016a1.965,1.965,0,0,0,2.1-1.8,2.123,2.123,0,0,0-4.2,0v.014L39.9,7.5a20.443,20.443,0,0,1-4.99,2.828A14.449,14.449,0,0,0,29.57,8.381,13.488,13.488,0,0,1,28.589,4V2.2a1.416,1.416,0,0,0-2.8,0V4a13.487,13.487,0,0,1-.979,4.386,14.449,14.449,0,0,0-5.343,1.945A25.779,25.779,0,0,1,16,8.586" transform="translate(-9.871)" stroke-linejoin="round" stroke-width="1.3px" fill="#00DCA0">
			</path>
			<path id="Path_2934" data-name="Path 2934" d="M10.356,10.009l-.129-.1L8.917,8.811V8.8A2,2,0,0,0,6.758,7,2,2,0,0,0,4.6,8.8a2,2,0,0,0,2.159,1.8h.017l1.313,1.092a17.519,17.519,0,0,1,3.5,4.457,10.219,10.219,0,0,0-1.722,3.8,21.862,21.862,0,0,1-5.269.839H2.439A1.336,1.336,0,0,0,1,21.977a1.336,1.336,0,0,0,1.439,1.2H4.6a21.86,21.86,0,0,1,5.269.842,10.22,10.22,0,0,0,1.722,3.795,17.519,17.519,0,0,1-3.5,4.457L6.774,33.359H6.758a2,2,0,0,0-2.159,1.8,2,2,0,0,0,2.159,1.8,2,2,0,0,0,2.159-1.8v-.014l1.312-1.093a21.207,21.207,0,0,1,5.135-2.828,15.146,15.146,0,0,0,5.5,1.945,13.166,13.166,0,0,1,1.008,4.386v1.8a1.464,1.464,0,0,0,2.879,0v-1.8a13.168,13.168,0,0,1,1.011-4.386,15.145,15.145,0,0,0,5.5-1.945c.535.216,1.3.545,2.131.959" transform="translate(0 -1.548)" stroke-linejoin="round" stroke-width="1.3px" fill="#00DCA0">
			</path>
		</g>
	</g>
</svg>
