<svg xmlns:xlink="http://www.w3.org/1999/xlink" xmlns="http://www.w3.org/2000/svg" viewBox="0 0 30.696 27.517" width="39" height="32">
	<path id="envelope" d="M24.3,2.182H6.395A6.333,6.333,0,0,0,0,8.436V23.445A6.333,6.333,0,0,0,6.395,29.7H24.3A6.333,6.333,0,0,0,30.7,23.445V8.436A6.333,6.333,0,0,0,24.3,2.182ZM6.395,4.683H24.3a3.837,3.837,0,0,1,3.556,2.36l-9.795,9.58a3.908,3.908,0,0,1-5.428,0L2.839,7.044a3.837,3.837,0,0,1,3.556-2.36ZM24.3,27.2H6.395a3.8,3.8,0,0,1-3.837-3.752V10.312l8.267,8.08a6.507,6.507,0,0,0,9.045,0l8.267-8.08V23.445A3.8,3.8,0,0,1,24.3,27.2Z" transform="translate(0 -2.182)" fill="#FFFFFF">
	</path>
</svg>
