<svg xmlns="http://www.w3.org/2000/svg" width="41" height="40" viewBox="0 0 41 40" fill="none">
	<path fill="black" d="M23.6002 11.2515L21.1667 11.2476C18.4328 11.2476 16.666 13.0583 16.666 15.861V17.9881H14.2193C14.0079 17.9881 13.8367 18.1593 13.8367 18.3705V21.4525C13.8367 21.6637 14.0081 21.8347 14.2193 21.8347H16.666V29.6114C16.666 29.8226 16.8372 29.9937 17.0487 29.9937H20.241C20.4524 29.9937 20.6236 29.8224 20.6236 29.6114V21.8347H23.4844C23.6958 21.8347 23.867 21.6637 23.867 21.4525L23.8682 18.3705C23.8682 18.2691 23.8278 18.172 23.7562 18.1002C23.6845 18.0285 23.5869 17.9881 23.4854 17.9881H20.6236V16.1849C20.6236 15.3183 20.8303 14.8783 21.9605 14.8783L23.5998 14.8777C23.811 14.8777 23.9822 14.7065 23.9822 14.4955V11.6337C23.9822 11.4229 23.8112 11.2518 23.6002 11.2515Z" >
	</path>
</svg>
