<svg width="11" height="6" viewBox="0 0 11 6" fill="none" xmlns="http://www.w3.org/2000/svg">
<path d="M0 0.591703C0.0482068 0.546146 0.0436302 0.479564 0.0717 0.425247C0.312734 -0.0419974 0.908607 -0.144207 1.31623 0.214111C1.36352 0.255871 1.40776 0.300843 1.45322 0.344647C2.77494 1.60971 4.09727 2.87419 5.41655 4.14188C5.48734 4.20992 5.5209 4.2035 5.58741 4.13955C6.93751 2.84353 8.29066 1.55014 9.64228 0.255287C9.8769 0.0307175 10.1478 -0.058351 10.4728 0.03685C10.9625 0.180236 11.1629 0.78006 10.8505 1.16817C10.8136 1.21401 10.7727 1.25811 10.73 1.29899C9.18309 2.78016 7.6362 4.26103 6.0887 5.74132C5.79855 6.01904 5.44371 6.07423 5.11236 5.89492C5.037 5.85404 4.97354 5.79826 4.91282 5.74015C3.36502 4.26015 1.81874 2.7787 0.269409 1.29987C0.14218 1.17839 0.0695643 1.0315 0 0.879642C0 0.783857 0 0.68778 0 0.591703Z" fill="white"/>
</svg>
