<svg xmlns="http://www.w3.org/2000/svg" width="41" height="40" viewBox="0 0 41 40" fill="none">
	<path d="M20.053 14.2183C16.8578 14.2183 14.2694 16.8053 14.2694 19.9959C14.2694 23.1877 16.8578 25.7747 20.053 25.7747C23.2456 25.7747 25.8365 23.1877 25.8365 19.9959C25.8365 16.8053 23.2456 14.2183 20.053 14.2183ZM20.053 23.7501C17.9775 23.7501 16.2948 22.0692 16.2948 19.9971C16.2948 17.9238 17.9775 16.2441 20.053 16.2441C22.1284 16.2441 23.8086 17.9238 23.8086 19.9971C23.8086 22.0692 22.1284 23.7501 20.053 23.7501Z" fill="black">
	</path>
	<path d="M26.0667 15.3531C26.8115 15.3531 27.4153 14.7499 27.4153 14.0058C27.4153 13.2618 26.8115 12.6586 26.0667 12.6586C25.3219 12.6586 24.7181 13.2618 24.7181 14.0058C24.7181 14.7499 25.3219 15.3531 26.0667 15.3531Z" fill="black">
	</path>
	<path fill="black" d="M30.7293 12.6361C30.1426 11.1252 28.9479 9.93041 27.4354 9.34678C26.5609 9.01809 25.6364 8.84188 24.7006 8.82188C23.4958 8.76939 23.1143 8.75439 20.0592 8.75439C17.0042 8.75439 16.6126 8.75439 15.4179 8.82188C14.4846 8.84063 13.5601 9.01684 12.6856 9.34678C11.1718 9.93041 9.97709 11.1252 9.39161 12.6361C9.06258 13.5109 8.88619 14.4333 8.86742 15.3681C8.81363 16.5703 8.79736 16.9515 8.79736 20.0046C8.79736 23.0565 8.79736 23.4452 8.86742 24.6412C8.88619 25.576 9.06258 26.4983 9.39161 27.3744C9.97834 28.8841 11.1731 30.0789 12.6868 30.6637C13.5576 31.0037 14.4821 31.1961 15.4204 31.2261C16.6251 31.2786 17.0067 31.2949 20.0617 31.2949C23.1168 31.2949 23.5083 31.2949 24.7031 31.2261C25.6376 31.2074 26.5621 31.0299 27.4379 30.7025C28.9504 30.1164 30.1451 28.9228 30.7318 27.4119C31.0609 26.5371 31.2373 25.6148 31.256 24.6799C31.3098 23.4777 31.3261 23.0965 31.3261 20.0434C31.3261 16.9902 31.3261 16.6028 31.256 15.4068C31.2398 14.4595 31.0646 13.5209 30.7293 12.6361ZM29.2056 24.5487C29.1968 25.2686 29.0667 25.9822 28.8165 26.6583C28.4349 27.6418 27.658 28.4192 26.6747 28.7966C26.0054 29.0453 25.2998 29.1753 24.5855 29.1853C23.397 29.2403 23.0617 29.254 20.0142 29.254C16.9642 29.254 16.6526 29.254 15.4416 29.1853C14.7298 29.1765 14.0217 29.0453 13.3537 28.7966C12.3666 28.4204 11.5847 27.6431 11.2031 26.6583C10.9579 25.9909 10.8253 25.2848 10.814 24.5725C10.7602 23.3852 10.7477 23.0503 10.7477 20.0059C10.7477 16.9602 10.7477 16.6491 10.814 15.4381C10.8228 14.7182 10.9529 14.0058 11.2031 13.3297C11.5847 12.3437 12.3666 11.5676 13.3537 11.1902C14.0217 10.9427 14.7298 10.8115 15.4416 10.8015C16.6314 10.7477 16.9654 10.7327 20.0142 10.7327C23.063 10.7327 23.3757 10.7327 24.5855 10.8015C25.2998 10.8102 26.0054 10.9415 26.6747 11.1902C27.658 11.5688 28.4349 12.3462 28.8165 13.3297C29.0617 13.9971 29.1943 14.7032 29.2056 15.4156C29.2594 16.6041 29.2731 16.9377 29.2731 19.9834C29.2731 23.0278 29.2731 23.3552 29.2193 24.55H29.2056V24.5487Z">
	</path>
</svg>
