<svg viewBox="0 0 31.367 37.178">
	<path id="Path_798" data-name="Path 798" d="M22.238,12a6.2,6.2,0,1,0,6.239,6.2A6.218,6.218,0,0,0,22.238,12Zm0,9.294a3.1,3.1,0,1,1,3.12-3.1A3.109,3.109,0,0,1,22.238,21.293Z" transform="translate(-6.554 -2.702)">
	</path>
	<path id="Path_799" data-name="Path 799" d="M19.573,37.174a8.24,8.24,0,0,1-6.724-3.408C6.9,25.623,3.89,19.5,3.89,15.571a15.684,15.684,0,0,1,31.367,0c0,3.931-3.015,10.053-8.959,18.2a8.24,8.24,0,0,1-6.724,3.408Zm0-33.8a12.253,12.253,0,0,0-12.282,12.2c0,3.113,2.953,8.871,8.312,16.211a4.926,4.926,0,0,0,7.939,0c5.359-7.34,8.312-13.1,8.312-16.211a12.253,12.253,0,0,0-12.282-12.2Z" transform="translate(-3.89 0.004)">
	</path>
</svg>
