<svg xmlns:xlink="http://www.w3.org/1999/xlink" xmlns="http://www.w3.org/2000/svg" viewBox="0 0 40 40" width="52" height="52">
	<g id="_5" data-name="5" transform="translate(-476 -1556)" fill="#00DCA0">
		<rect id="Rectangle_248" data-name="Rectangle 248" width="40" height="40" transform="translate(476 1556)" fill="none">
		</rect>
		<g id="_6092278_clean_cleaning_covid_gel_hand_icon" data-name="6092278_clean_cleaning_covid_gel_hand_icon" transform="translate(455.977 1534.99)" fill="#00DCA0">
			<path id="Path_2935" data-name="Path 2935" d="M27.773,28.11a.806.806,0,0,0,.563-.237.786.786,0,0,0,.237-.563.787.787,0,1,0-.8.8Z" transform="translate(-1.073 -1.992)" fill="#00DCA0">
			</path>
			<path id="Path_2936" data-name="Path 2936" d="M27.039,33.515a.966.966,0,0,0,.07.141.934.934,0,0,0,.1.121.8.8,0,0,0,1.362-.563,1.349,1.349,0,0,0,0-.16.774.774,0,0,0-.121-.288c-.032-.038-.064-.083-.1-.121a.825.825,0,0,0-1.125,0c-.038.038-.07.083-.1.121a.965.965,0,0,0-.07.141.563.563,0,0,0-.045.147.684.684,0,0,0,0,.16.639.639,0,0,0,0,.153A.563.563,0,0,0,27.039,33.515Z" transform="translate(-1.075 -4.116)" fill="#00DCA0">
			</path>
			<path id="Path_2937" data-name="Path 2937" d="M30.755,31.034a.831.831,0,0,0,.569-.237.8.8,0,0,0,.23-.563,1.348,1.348,0,0,0,0-.16.774.774,0,0,0-.121-.288l-.1-.121a.838.838,0,0,0-1.132,0,.933.933,0,0,0-.1.121.966.966,0,0,0-.07.141.563.563,0,0,0-.045.147.684.684,0,0,0,0,.16.806.806,0,0,0,.8.8Z" transform="translate(-2.149 -3.042)" fill="#00DCA0">
			</path>
			<path id="Path_2938" data-name="Path 2938" d="M24.353,30.893l.134.07a.7.7,0,0,0,.153.045.639.639,0,0,0,.153,0h.16a.761.761,0,0,0,.147-.045l.134-.07a.639.639,0,0,0,.121-.1.78.78,0,0,0,.237-.563,1.349,1.349,0,0,0,0-.16.575.575,0,0,0-.051-.147.965.965,0,0,0-.07-.141.933.933,0,0,0-.1-.121.448.448,0,0,0-.121-.1.563.563,0,0,0-.134-.077l-.147-.045a.812.812,0,0,0-.723.217.934.934,0,0,0-.1.121.965.965,0,0,0-.07.141.563.563,0,0,0-.045.147.684.684,0,0,0,0,.16.78.78,0,0,0,.237.563A.639.639,0,0,0,24.353,30.893Z" transform="translate(0 -3.035)" fill="#00DCA0">
			</path>
			<path id="Path_2939" data-name="Path 2939" d="M64.866,74.367a.6.6,0,0,0,.141.077l.147.045a.639.639,0,0,0,.16,0,.639.639,0,0,0,.153,0l.147-.045a.6.6,0,0,0,.141-.077.576.576,0,0,0,.121-.1.818.818,0,0,0,.237-.569.639.639,0,0,0,0-.153.563.563,0,0,0-.045-.147.6.6,0,0,0-.077-.141.575.575,0,0,0-.1-.121l-.121-.1-.16-.07a.562.562,0,0,0-.147-.045.812.812,0,0,0-.723.217.575.575,0,0,0-.1.121.6.6,0,0,0-.077.141.991.991,0,0,0-.045.147.639.639,0,0,0,0,.153.831.831,0,0,0,.237.569.575.575,0,0,0,.1.1Z" transform="translate(-14.605 -18.714)" fill="#00DCA0">
			</path>
			<path id="Path_2940" data-name="Path 2940" d="M64.508,79.822a.992.992,0,0,0,.045.147.6.6,0,0,0,.077.141.639.639,0,0,0,.217.217.6.6,0,0,0,.141.077l.147.045a.639.639,0,0,0,.16,0,.64.64,0,0,0,.153,0L65.6,80.4a.6.6,0,0,0,.141-.077.64.64,0,0,0,.217-.217.6.6,0,0,0,.077-.141.563.563,0,0,0,.045-.147.639.639,0,0,0,0-.16.818.818,0,0,0-.237-.563l-.121-.1a.964.964,0,0,0-.141-.07.563.563,0,0,0-.147-.045.863.863,0,0,0-.313,0,.563.563,0,0,0-.147.045.964.964,0,0,0-.141.07l-.121.1a.818.818,0,0,0-.237.563A.639.639,0,0,0,64.508,79.822Z" transform="translate(-14.586 -20.864)" fill="#00DCA0">
			</path>
			<path id="Path_2941" data-name="Path 2941" d="M68.456,77.467l.147-.045a.6.6,0,0,0,.141-.077.575.575,0,0,0,.121-.1.934.934,0,0,0,.1-.121.966.966,0,0,0,.07-.141.563.563,0,0,0,.045-.147.639.639,0,0,0,0-.16.8.8,0,0,0-.959-.78l-.147.045a.6.6,0,0,0-.141.077.639.639,0,0,0-.217.217.6.6,0,0,0-.077.141.991.991,0,0,0-.045.147.64.64,0,0,0,0,.153.786.786,0,0,0,.8.8A.64.64,0,0,0,68.456,77.467Z" transform="translate(-15.676 -19.788)" fill="#00DCA0">
			</path>
			<path id="Path_2942" data-name="Path 2942" d="M62.976,76.241a.639.639,0,0,0-.217-.217.6.6,0,0,0-.141-.077l-.16-.045a.812.812,0,0,0-.723.217.793.793,0,0,0,0,1.132.806.806,0,0,0,1.362-.569.639.639,0,0,0,0-.153.563.563,0,0,0-.045-.147A.6.6,0,0,0,62.976,76.241Z" transform="translate(-13.514 -19.789)" fill="#00DCA0">
			</path>
			<path id="Path_2943" data-name="Path 2943" d="M29.94,38.058V55.833a5.755,5.755,0,0,0,5.755,5.755h6.432a5.755,5.755,0,0,0,5.723-5.755v-.953L58.233,53.4a.8.8,0,0,0-.224-1.579L45.126,53.653A6.6,6.6,0,0,1,41.04,52.3l-5.755-4.431a.563.563,0,0,1-.192-.416.543.543,0,0,1,.166-.435,2.513,2.513,0,0,1,3.2-.3L41.73,48.96A.084.084,0,0,1,41.8,49a3.9,3.9,0,0,0-.16,2.385A1.656,1.656,0,0,0,42.715,52.5a2.27,2.27,0,0,0,.735.121,2.436,2.436,0,0,0,1.279-.384,9.591,9.591,0,0,1,4-1.432L53,50.3a.8.8,0,1,0-.185-1.586l-4.29.505a11.119,11.119,0,0,0-4.674,1.675.818.818,0,0,1-.678.09,2.491,2.491,0,0,1,.4-2.052h0l4.111-2.82a3.625,3.625,0,0,1,2.423-.639l5.288.524,2.685.077a.81.81,0,1,0,.07-1.618l-2.628-.077-5.23-.524a5.217,5.217,0,0,0-2.155.237l-.288-.2V38.058a5.755,5.755,0,0,0-4.655-5.652V26.549a.8.8,0,0,0-.8-.8H35.4a.8.8,0,0,0-.8.8v5.882A5.755,5.755,0,0,0,29.94,38.058Zm9.4,7.334a4.1,4.1,0,0,0-2.922-.639h0L35.3,43.794a.742.742,0,0,1-.249-.512.716.716,0,0,1,.2-.531,2.558,2.558,0,0,1,3.376-.269L44.1,46.665l-1.483.985Zm7.193-.454-1.061.729-4.118-3.133a2.692,2.692,0,0,1,2.481.518ZM36.2,27.336h5.39V32.3H36.2Zm-.467,6.573h6.394a4.169,4.169,0,0,1,4.118,4.15V42.79L44.78,41.767a4.335,4.335,0,0,0-4.879-.345l-.332-.243a4.118,4.118,0,0,0-5.512.448,2.251,2.251,0,0,0-.639,1.707,2.283,2.283,0,0,0,.8,1.637l.48.416a3.945,3.945,0,0,0-.639.505,2.174,2.174,0,0,0,.211,3.248l5.755,4.431a8.127,8.127,0,0,0,4.943,1.682h.288l.946-.128v.735a4.124,4.124,0,0,1-4.073,4.111H35.663a4.124,4.124,0,0,1-4.124-4.124V38.058a4.169,4.169,0,0,1,4.194-4.15Z" transform="translate(-2.134 -1.709)" fill="#00DCA0">
			</path>
			<path id="Path_2944" data-name="Path 2944" d="M38.029,22.608H53.164a.8.8,0,1,0,0-1.6H38.029a.8.8,0,0,0,0,1.6Z" transform="translate(-4.763)" fill="#00DCA0">
			</path>
			<path id="Path_2945" data-name="Path 2945" d="M61.495,39.285l.166.166a3.545,3.545,0,0,0,5.492-4.418L64.5,30.883a.8.8,0,0,0-1.375.051L60.881,35.09A3.555,3.555,0,0,0,61.495,39.285Zm.793-3.434,1.6-2.96L65.8,35.9a1.957,1.957,0,0,1-.269,2.423,2,2,0,0,1-2.756,0l-.166-.166A1.957,1.957,0,0,1,62.287,35.851Z" transform="translate(-13.138 -3.428)" fill="#00DCA0">
			</path>
		</g>
	</g>
</svg>
