<svg xmlns:xlink="http://www.w3.org/1999/xlink" xmlns="http://www.w3.org/2000/svg" viewBox="0 0 40 40" width="52" height="52">
	<g id="Group_1096" data-name="Group 1096" transform="translate(-377 -1291)" fill="#00DCA0">
		<g id="_3249842_health_treatment_illustration_herbal_beauty_icon" data-name="3249842_health_treatment_illustration_herbal_beauty_icon" transform="translate(580.858 1367.667)" fill="#00DCA0">
			<g id="Group_1093" data-name="Group 1093" transform="translate(-203.858 -75.667)" fill="#00DCA0">
				<path id="Path_2928" data-name="Path 2928" d="M-193.711-37.328a1.339,1.339,0,0,1-.827-.3l-1.619-1.291a1.38,1.38,0,0,1-.523-.977,1.408,1.408,0,0,1,.372-1.061,9.522,9.522,0,0,0,2.3-8.655.23.23,0,0,0-.118-.078c-5.452-.466-8.766-3.458-9.582-8.649a22.554,22.554,0,0,1,.3-6.65c.351-2.428.8-4.757,1.282-7.221.16-.824.322-1.659.483-2.51a1.1,1.1,0,0,1,.789-.922,1.1,1.1,0,0,1,1.126.451c.234.291.45.572.657.836a14.877,14.877,0,0,0,1.721,1.987,32.628,32.628,0,0,0,3.99,3.019c3.811,2.521,5.951,5.42,6.357,8.618.4,3.132-.889,6.372-3.826,9.631a.768.768,0,0,1-1.086.057.769.769,0,0,1-.056-1.087c2.624-2.911,3.781-5.741,3.442-8.408-.348-2.733-2.258-5.267-5.679-7.529a34.339,34.339,0,0,1-4.171-3.161,16.353,16.353,0,0,1-1.9-2.186c-.01-.014-.021-.027-.032-.041q-.149.777-.3,1.535c-.476,2.447-.924,4.758-1.262,7.1a21.584,21.584,0,0,0-.305,6.243c.7,4.475,3.461,6.949,8.194,7.356a1.7,1.7,0,0,1,1.5,1.348,11.092,11.092,0,0,1-2.584,9.849l1.239.988c.176-.434.343-.867.51-1.3a17.578,17.578,0,0,1,2.46-4.843,13.493,13.493,0,0,1,4.026-2.952c.451-.253.908-.508,1.357-.78a1.375,1.375,0,0,1,1.094-.16,1.4,1.4,0,0,1,.87.7c1.811,3.42,3.726,4.53,6.615,3.842a6.128,6.128,0,0,0,2.115-.905,37.28,37.28,0,0,1,4.715-2.575,35.153,35.153,0,0,0,4.848-2.676.77.77,0,0,1,1.077.153.768.768,0,0,1-.153,1.076,35.663,35.663,0,0,1-5.093,2.826,37.387,37.387,0,0,0-4.5,2.45,7.791,7.791,0,0,1-2.647,1.146c-4.61,1.1-6.919-1.991-8.262-4.487-.425.253-.855.494-1.28.733a12.233,12.233,0,0,0-3.584,2.581,16.227,16.227,0,0,0-2.219,4.425c-.211.547-.424,1.1-.655,1.648a1.28,1.28,0,0,1-.86.765A1.092,1.092,0,0,1-193.711-37.328Z" transform="translate(203.858 75.667)" fill="#00DCA0">
				</path>
			</g>
			<g id="Group_1094" data-name="Group 1094" transform="translate(-186.762 -57.535)" fill="#00DCA0">
				<path id="Path_2929" data-name="Path 2929" d="M-165.19-49.923a.735.735,0,0,1-.376-.1c-.785-.444-1.561-.9-2.338-1.358-1.775-1.046-3.613-2.127-5.487-3a32.629,32.629,0,0,0-6.325-2.011c-1.748-.406-5.129,1.653-6.02,3.3a.772.772,0,0,1-1.043.312.77.77,0,0,1-.311-1.043c1.2-2.225,5.242-4.648,7.719-4.067a33.887,33.887,0,0,1,6.627,2.115c1.941.9,3.81,2,5.617,3.068.771.453,1.54.907,2.318,1.346a.77.77,0,0,1,.289,1.047A.767.767,0,0,1-165.19-49.923Z" transform="translate(187.181 57.979)" fill="#00DCA0">
				</path>
			</g>
			<g id="Group_1095" data-name="Group 1095" transform="translate(-198.685 -68.781)" fill="#00DCA0">
				<path id="Path_2930" data-name="Path 2930" d="M-189.56-48.061a1.332,1.332,0,0,1-.21-.017,1.33,1.33,0,0,1-.919-.629c-.612-.991-1.249-1.968-1.885-2.943-3.192-4.892-6.494-9.954-6.223-16.558a.75.75,0,0,1,.8-.736.769.769,0,0,1,.737.8c-.252,6.113,2.772,10.748,5.973,15.655.6.924,1.208,1.851,1.79,2.788,4.934-3.977,12.468-4.271,16.893-.623a.773.773,0,0,1,.106,1.085.774.774,0,0,1-1.085.1c-3.863-3.184-10.774-2.841-15.092.75A1.4,1.4,0,0,1-189.56-48.061Z" transform="translate(198.812 68.95)" fill="#00DCA0">
				</path>
			</g>
		</g>
	</g>
</svg>
