<svg xmlns:xlink="http://www.w3.org/1999/xlink" xmlns="http://www.w3.org/2000/svg" viewBox="0 0 40 40" width="52" height="52">
	<g id="smile" transform="translate(-372 -1286)" fill="#00DCA0">
		<rect id="Rectangle_260" data-name="Rectangle 260" width="40" height="40" transform="translate(372 1286)" fill="none">
		</rect>
		<g id="Expanded" transform="translate(374 1288)" fill="#00DCA0">
			<g id="Group_1090" data-name="Group 1090" fill="#00DCA0">
				<g id="Group_1086" data-name="Group 1086" fill="#00DCA0">
					<path id="Path_2923" data-name="Path 2923" d="M18,36A18,18,0,1,1,36,18,18.021,18.021,0,0,1,18,36ZM18,1.5A16.5,16.5,0,1,0,34.5,18,16.519,16.519,0,0,0,18,1.5Z" stroke-width="0.3px" fill="#00DCA0">
					</path>
				</g>
				<g id="Group_1087" data-name="Group 1087" transform="translate(7.92 21.51)" fill="#00DCA0">
					<path id="Path_2924" data-name="Path 2924" d="M18.08,35.71A10.092,10.092,0,0,1,8,25.63a.63.63,0,0,1,1.26,0,8.82,8.82,0,1,0,17.64,0,.63.63,0,1,1,1.26,0A10.092,10.092,0,0,1,18.08,35.71Z" transform="translate(-8 -25)" stroke-width="0.3px" fill="#00DCA0">
					</path>
				</g>
				<g id="Group_1088" data-name="Group 1088" transform="translate(7.816 11.507)" fill="#00DCA0">
					<path id="Path_2925" data-name="Path 2925" d="M15.67,18.78a.63.63,0,0,1-.63-.63,1.89,1.89,0,1,0-3.78,0,.63.63,0,0,1-1.26,0,3.15,3.15,0,1,1,6.3,0A.63.63,0,0,1,15.67,18.78Z" transform="translate(-10 -15)" stroke-width="0.3px" fill="#00DCA0">
					</path>
				</g>
				<g id="Group_1089" data-name="Group 1089" transform="translate(21.884 11.507)" fill="#00DCA0">
					<path id="Path_2926" data-name="Path 2926" d="M33.67,18.78a.63.63,0,0,1-.63-.63,1.89,1.89,0,1,0-3.78,0,.63.63,0,0,1-1.26,0,3.15,3.15,0,1,1,6.3,0A.63.63,0,0,1,33.67,18.78Z" transform="translate(-28 -15)" stroke-width="0.3px" fill="#00DCA0">
					</path>
				</g>
			</g>
		</g>
	</g>
</svg>
