<svg xmlns="http://www.w3.org/2000/svg" width="41" height="40" viewBox="0 0 41 40" fill="none">
	<path  fill="black" d="M29.607 16.1986C29.377 15.3406 28.702 14.6636 27.845 14.4326C26.279 14.0026 20.014 13.9956 20.014 13.9956C20.014 13.9956 13.75 13.9886 12.183 14.3996C11.343 14.6286 10.649 15.3206 10.417 16.1776C10.004 17.7436 10 20.9916 10 20.9916C10 20.9916 9.996 24.2556 10.406 25.8056C10.636 26.6626 11.311 27.3396 12.169 27.5706C13.751 28.0006 19.999 28.0076 19.999 28.0076C19.999 28.0076 26.264 28.0146 27.83 27.6046C28.686 27.3746 29.364 26.6986 29.597 25.8416C30.011 24.2766 30.014 21.0296 30.014 21.0296C30.014 21.0296 30.034 17.7646 29.607 16.1986ZM18.01 24.0006L18.015 18.0006L23.222 21.0056L18.01 24.0006Z">
	</path>
</svg>
